<svg width="2569" height="512" viewBox="0 0 2569 512" fill="none" xmlns="http://www.w3.org/2000/svg">
<path d="M372.32 149.12C386.65 59.7901 396.91 5.77002 396.91 5.77002H82.1099C36.6599 296.06 0 503.87 0 503.87H155.72C162.15 459.21 169.72 412.05 175.27 376.73C256.83 376 303.56 376.73 303.56 376.73C317.34 290.27 326.4 242.73 326.4 242.73C246.85 244.16 217.31 244.16 197.12 244.16C206.96 184.39 212.93 150.54 212.93 150.54C303.53 147.73 372.32 149.12 372.32 149.12ZM528.45 370.86C576.13 76.0701 589.97 5.77002 589.97 5.77002H434.29C393.21 263.1 350.74 503.87 350.74 503.87H655.66C655.66 503.87 663.06 453.77 679.85 370.87C679.85 370.9 622.36 373.77 528.45 370.9V370.86ZM771.32 5.77002C740.53 192.46 712.98 356.77 686.32 503.87C780.86 503.13 844.91 503.87 844.91 503.87C888.65 243.6 929.16 5.77002 929.16 5.77002C826.68 6.55002 771.32 5.81006 771.32 5.81006V5.77002ZM1117.7 0.200195C1073.91 0.933002 1030.29 5.93665 987.47 15.1401C954.41 206.57 922.4 380.41 898.63 503.87H1058.06L1073.24 403.24C1203.94 406.11 1313.24 346.24 1337.43 209.24C1361.62 72.2402 1285.53 0.240234 1117.7 0.240234V0.200195ZM1181.42 210.46C1170.42 273.41 1140.1 294.1 1090.86 291.99L1090.74 291.84C1102.74 219.76 1112.03 166.97 1118.81 132.69C1123.87 132.105 1128.96 131.871 1134.05 131.99C1175.19 132.03 1190.48 159.12 1181.42 210.5V210.46ZM1537.31 0.200195C1493.51 0.944219 1449.89 5.96132 1407.06 15.1802C1373.99 206.61 1341.98 380.45 1318.22 503.91H1477.64L1492.82 403.28C1623.51 406.15 1732.82 346.28 1757.01 209.28C1781.2 72.28 1705.15 0.240234 1537.31 0.240234V0.200195ZM1601.04 210.46C1590.04 273.41 1559.72 294.1 1510.48 291.99L1510.35 291.84C1522.35 219.76 1531.64 166.97 1538.43 132.69C1543.49 132.105 1548.58 131.871 1553.67 131.99C1594.8 132.03 1610.06 159.12 1601.06 210.5L1601.04 210.46ZM1928.23 319.31C2020.51 319.31 2061.49 320.01 2061.49 320.01C2073.55 239.31 2082.49 196.77 2082.49 196.77C1977.72 198.2 1946.84 197.5 1946.84 197.5C1946.84 197.5 1949.7 177.33 1956.84 140.5C2056.11 137.62 2126.17 136.88 2126.17 136.88C2138.75 53.2701 2147.87 5.71021 2147.87 5.71021H1825.06C1794.46 199.62 1766.53 366.11 1742.95 503.81H2060.17C2075.43 417.32 2083.61 379.09 2083.61 379.09C1972.28 376.95 1920.85 374.09 1920.85 374.09C1920.85 374.09 1922.61 355.4 1928.23 319.35V319.31ZM2325.92 0.200195C2281.7 0.457046 2237.55 3.65729 2193.76 9.78003C2193.76 9.78003 2159.65 211.28 2105.6 505.58C2143.14 509.28 2178.01 511.46 2210.48 511.46C2418.08 511.46 2530.01 436.93 2561.48 258.35C2592.19 84.5001 2525.58 0.240234 2325.92 0.240234V0.200195ZM2393.19 256.27C2372.19 375.2 2339.88 395.03 2284.02 392.8C2284.02 392.8 2299.76 287.31 2326.7 126.38C2393.83 122.02 2410.37 158.93 2393.19 256.31V256.27Z" fill="white"/>
</svg>
